<?xml version="1.0" encoding="utf-8"?>
<!-- Generator: Adobe Illustrator 23.1.1, SVG Export Plug-In . SVG Version: 6.00 Build 0)  -->
<svg version="1.1" id="Layer_1" xmlns="http://www.w3.org/2000/svg" xmlns:xlink="http://www.w3.org/1999/xlink" x="0px" y="0px"
	 viewBox="0 0 16 16" style="enable-background:new 0 0 16 16;" xml:space="preserve">
<g>
	<path d="M15,1v14H1V1H15 M16,0H0v16h16V0L16,0z"/>
</g>
<g>
	<path d="M8,12.3c0.4,0,0.8-0.1,1.1-0.2c0.3-0.1,0.6-0.3,0.8-0.6c0.2-0.2,0.3-0.5,0.4-0.8s0.1-0.7,0.1-1V9.5h1.3v0.2
		c0,0.5-0.1,1-0.2,1.5c-0.2,0.5-0.4,0.9-0.7,1.2c-0.3,0.3-0.7,0.6-1.2,0.8c-0.5,0.2-1,0.3-1.6,0.3c-1.2,0-2.1-0.4-2.7-1.1
		c-0.7-0.7-1-1.8-1-3.2V6.8c0-1.4,0.3-2.4,1-3.2C5.9,2.9,6.8,2.5,8,2.5c0.6,0,1.1,0.1,1.6,0.3c0.5,0.2,0.9,0.5,1.2,0.8
		c0.3,0.3,0.5,0.8,0.7,1.2c0.2,0.5,0.2,1,0.2,1.5v0.2h-1.3V6.3c0-0.3-0.1-0.7-0.2-1C10.2,5,10,4.7,9.9,4.5C9.7,4.2,9.4,4,9.1,3.9
		C8.8,3.8,8.4,3.7,8,3.7C7.2,3.7,6.6,4,6.2,4.6C5.8,5.2,5.6,5.9,5.6,6.9v2.2c0,1,0.2,1.8,0.6,2.4C6.6,12,7.2,12.3,8,12.3z"/>
</g>
</svg>
